PathFileType	4	(X/Y/Z)	Patient4_TMGait_0pt6_01_left_26.trc.trc
DataRate	CameraRate	NumFrames	NumMarkers	Units	OrigDataRate	OrigDataStartFrame	OrigNumFrames
81.395348837209	81.395348837209	4	33	mm	81.395348837209	89	       141
Frame#	Time	Sacral			L.Shoulder			Chest			R.Shoulder			Neck			R.ASIS			L.ASIS			R.Thigh.Superior			R.Thigh.Lateral			R.Thigh.Inferior			R.Patella			L.Thigh.Superior			L.Thigh.Lateral			L.Thigh.Inferior			L.Patella			L.Shank.Superior			L.Shank.Lateral			L.Shank.Inferior			R.Shank.Superior			R.Shank.Lateral			R.Shank.Inferior			R.Heel			R.Midfoot.Superior			R.Midfoot.Lateral			R.Toe			L.Heel			L.Midfoot.Lateral			L.Midfoot.Superior			L.Toe			L.Elbow			L.Wrist			R.Elbow			R.Wrist			
		X1	Y1	Z1	X2	Y2	Z2	X3	Y3	Z3	X4	Y4	Z4	X5	Y5	Z5	X6	Y6	Z6	X7	Y7	Z7	X8	Y8	Z8	X9	Y9	Z9	X10	Y10	Z10	X11	Y11	Z11	X12	Y12	Z12	X13	Y13	Z13	X14	Y14	Z14	X15	Y15	Z15	X16	Y16	Z16	X17	Y17	Z17	X18	Y18	Z18	X19	Y19	Z19	X20	Y20	Z20	X21	Y21	Z21	X22	Y22	Z22	X23	Y23	Z23	X24	Y24	Z24	X25	Y25	Z25	X26	Y26	Z26	X27	Y27	Z27	X28	Y28	Z28	X29	Y29	Z29	X30	Y30	Z30	X31	Y31	Z31	X32	Y32	Z32	X33	Y33	Z33	

89	32.711142857143	760.564232954164	1001.739866151402	498.666787493952	910.360810056169	1435.765438340829	315.098802449671	1019.285866967230	1372.042169734330	473.817280662448	935.006381305471	1438.588908392341	648.850936129588	892.473790474995	1494.467032712636	469.470566872703	991.573310577031	940.376122329708	607.931242125606	970.453124643675	965.666292276908	334.593922749001	1047.500105160203	746.758603701191	574.529368995644	975.570497037417	631.989701157360	633.576975594057	1056.718113651915	586.927300841375	551.748328104051	1065.375947705219	496.896057172864	556.548544216951	1009.226968006296	743.922268565173	353.126519004690	919.187370834760	631.496159495676	289.356671020511	1006.426097822912	544.795378979429	342.447416206050	996.493792545094	458.761847198028	338.078923636198	925.879515272986	402.429893365485	336.334831859594	781.705301241780	362.700042728477	295.326910220640	768.052835168564	235.039012269360	353.455475653289	1039.308076683049	407.126126842336	562.943010372067	972.142317407141	300.243232062353	622.668568448884	1016.578562230376	207.729711824354	558.608108965783	887.979535801326	42.043755025090	526.368901683895	1057.944819917543	97.548829764788	563.303241629645	970.251142377940	36.875044930486	602.199151307977	1178.437989459571	45.406827768929	593.457718231535	578.104985966932	177.481174123387	401.513506597720	629.905071612224	121.466461685724	324.774323280658	735.218155077017	129.496189039251	339.814853785394	809.413142518099	30.517443448745	323.418364905142	939.363107511355	1083.368555768942	195.823511155998	1096.398810013102	874.007832501728	179.674393409711	876.190432672516	1094.841245550261	766.653593476093	962.739695170823	847.914090331999	761.106478062905	
90	32.723428571429	760.415639793386	1002.153626124689	501.885534387231	909.111313215566	1435.954108344639	317.225755300041	1019.580245904014	1372.205794294204	474.971224546889	936.985831835923	1438.651063399115	650.866190621617	892.903100456879	1494.650786123878	472.018388728566	991.926378190288	940.791874769511	609.834588931871	969.115683243529	965.431138747010	336.739972648532	1045.777298118551	745.767397588468	577.532037760302	972.238522477710	631.901006635435	635.914243323701	1052.843067687500	586.142270609983	554.043635796223	1060.211890845424	496.225513848255	558.436012841303	1014.022117628863	746.515422406589	355.607390076561	928.992742392235	632.035180403658	290.403187713115	1018.552604030675	547.406039327202	343.992653094347	1010.207790163530	460.322096364912	339.172747753443	938.127088874502	403.885230429638	337.078175907932	792.891381677926	368.633252376539	295.394557879921	775.111187830155	241.480288014557	353.404500193415	1033.890763618454	406.599527110889	564.553191680138	966.282731857189	299.849832502126	623.863305092309	1010.178798663747	207.370516252980	559.372224849694	880.621887019015	42.081747277879	526.568416835708	1050.763324163996	97.367762693146	563.620268192413	962.887488025618	36.810757450062	602.359390756652	1171.157755815870	44.849113672854	593.588805832888	583.244832171345	192.786358158636	400.514541910459	632.518707510687	133.938131095277	323.901740466977	738.389567043388	136.244252470843	339.318242380085	806.667213093790	30.259688933248	322.874337643403	934.134740528363	1082.386080724539	199.855626404918	1078.617645420758	864.385247025420	183.457040649653	885.917566196894	1093.753598971700	770.263661075864	985.158462215717	851.679178911054	762.380674575031	
91	32.735714285714	760.035698680126	1002.564541966091	504.898580564168	907.823854300531	1436.076053961263	319.184526242770	1019.788253949177	1372.260438046635	475.956718774727	938.907428624843	1438.646761810025	652.712994346434	893.335734345526	1494.808352184507	474.377480344274	991.999531645912	941.139968825127	611.655583515500	967.570909875153	965.059341160447	338.760398703668	1043.809307142384	744.893268595236	580.354883758366	968.782513474439	631.872930412243	638.207380109966	1048.835892241294	585.406283603365	556.333333128720	1054.922580730268	495.622462381839	560.416082299968	1018.474265688714	749.418324936172	358.163594504933	938.450018714336	633.086786337299	291.456247807256	1030.149192601846	550.639981092976	345.629333645303	1023.596709036583	462.596240227997	340.370469619677	950.359697171983	405.889814629159	337.885008870849	804.312988995724	374.458623535678	295.555456768737	783.023215269985	247.794453143241	353.515907201517	1028.363947439488	406.135174143845	566.223651685754	960.270070170625	299.513292681783	625.082927930284	1003.729847699188	207.066315792222	560.222415795966	873.237568056939	42.145523714738	526.788042707042	1043.575326428315	97.192615643826	563.962324276327	955.507815544023	36.756178086150	602.531143453712	1163.856336444761	44.300005232234	593.733715254844	589.730049326721	206.538658075708	399.770335671685	636.871409124854	145.593496107985	323.142181644590	743.064998053269	143.061765842879	338.967925579340	806.207954952647	30.588911147225	322.180996567572	928.421256702922	1081.336698209024	203.770212333620	1060.184658858538	855.682618029031	187.384252736153	896.026927673608	1092.749902689568	773.643581850736	1007.832548559693	856.304906762018	763.386488721468	
92	32.748000000000	759.450775841785	1003.031885532168	507.701730068989	906.546035824332	1436.206035625337	320.985950290075	1019.918322497528	1372.271353846394	476.798468087329	940.756026432944	1438.656275748774	654.391866542151	893.768743975065	1495.005506567694	476.530198375205	991.806720769624	941.478108033078	613.398877165837	965.904792729975	964.669003107045	340.654985174931	1041.582480276359	744.157212751450	582.983962950901	965.141779180758	631.925510080409	640.424670892608	1044.648917154036	584.728656145501	558.598964361146	1049.461033815181	495.104656055365	562.446630346310	1022.505165091267	752.661437671577	360.761264335101	947.373822267790	634.694318720039	292.500152310859	1041.071342535140	554.508769319474	347.230902412048	1036.497008140949	465.610410901195	341.512847258985	962.449482602761	408.444793188804	338.650707521314	815.811747676265	379.986489610140	295.799302469699	791.837202837318	253.704642839468	353.734688192316	1022.685053086145	405.758181992663	567.920734668382	954.064138178450	299.260811221361	626.303572775979	997.207629024859	206.842188957226	561.145770988203	865.831633281667	42.237016285305	527.024439503236	1036.376602538161	97.042302606393	564.323669813936	948.118487165120	36.715248869248	602.715234433433	1156.536133520420	43.791156762273	593.895714528612	597.568162439834	218.040574802453	399.323980371274	643.099988383569	155.781642758855	322.531777728738	749.451528753480	149.557420772994	338.722145547982	808.567409473575	31.539968524192	321.323372357766	922.154442382128	1080.330120206525	207.560693443943	1041.232791705235	848.022562481792	191.460398364957	906.508265097238	1091.906390851895	776.717536157729	1030.648595509558	861.865538932949	764.083710752601	
